<svg version="1" xmlns="http://www.w3.org/2000/svg" width="346.667" height="346.667" viewBox="0 0 260.000000 260.000000"><path d="M110.5 15c.3.5-.3.6-1.2.4-1-.3-2.7.2-3.8 1.1-1.1.9-1.3 1.3-.5.9.9-.4 1.2-.3.7.2s-1.6.9-2.5.9c-.9 0-1.7.8-1.7 1.7 0 .9-.4 2-.9 2.5s-.6.2-.2-.7c.4-.8 0-.6-.9.5s-1.4 2.8-1.1 3.8c.2.9 0 1.5-.4 1.2-.5-.3-.9 44.6-.9 100 0 55.3.4 100.3.9 100 .4-.3.6.3.4 1.2-.3 1 .2 2.7 1.1 3.8.9 1.1 1.3 1.3.9.5-.4-.9-.3-1.2.2-.7s.9 1.6.9 2.5c0 .9.8 1.7 1.7 1.7.9 0 2 .4 2.5.9s.2.6-.7.2c-.8-.4-.6 0 .5.9s2.8 1.4 3.8 1.1c.9-.2 1.5-.1 1.2.4-.3.4 7.8.8 18 .9 10.6.1 18.5-.3 18.5-.8s.9-.7 2-.4c2.9.8 11.5-7.8 10.7-10.7-.3-1.1-.1-1.8.3-1.5.5.3.8-44.7.8-100s-.3-100.3-.8-100c-.4.3-.6-.4-.3-1.5.8-2.9-7.8-11.5-10.7-10.7-1.1.3-1.8.2-1.5-.3.3-.4-8-.8-18.5-.8-10.4.1-18.7.4-18.5.8zm45.1 5.2l2.9 3.3-3.2-2.9c-3.1-2.8-3.8-3.6-3-3.6.2 0 1.6 1.5 3.3 3.2zm-22.2 199c.4-.3.6 0 .6.7s.5.9 1 .6c.6-.4 1-.3.9.2-.3 2 .2 3.4 1 2.8.6-.3.7.6.4 2.2-.3 1.6-.6 3.4-.6 4 0 .7-.4 1.3-.9 1.3s-.7.4-.4.8c.6 1-1.1 1.3-6.8 1.5-2.3 0-4.1-.4-4.4-1.1-.2-.7-.9-.9-1.4-.6-.6.4-.8.3-.5-.3.4-.6.2-2.4-.3-4.2-.5-2-.5-3.1.1-3.1s.7-.5.4-1c-.3-.6-.1-1 .5-1s.8-.5.5-1c-.4-.6-.3-1 .2-.9 1.9.3 3.4-.2 2.9-1-.4-.5.9-.6 2.9-.1 1.9.4 3.6.5 3.9.2zm24.6 13.1c0 .2-1.5 1.6-3.2 3.3l-3.3 2.9 2.9-3.3c2.8-3 3.6-3.7 3.6-2.9z"/></svg>