<?xml version="1.0" standalone="no"?>
<!DOCTYPE svg PUBLIC "-//W3C//DTD SVG 20010904//EN"
 "http://www.w3.org/TR/2001/REC-SVG-20010904/DTD/svg10.dtd">
<svg version="1.0" xmlns="http://www.w3.org/2000/svg"
 width="260.000000pt" height="260.000000pt" viewBox="0 0 260.000000 260.000000"
 preserveAspectRatio="xMidYMid meet">
<metadata>
Created by potrace 1.11, written by Peter Selinger 2001-2013
</metadata>
<g transform="translate(0.000000,260.000000) scale(0.100000,-0.100000)"
fill="#000000" stroke="none">
<path d="M1005 2450 c3 -6 -1 -7 -9 -4 -26 10 -83 -34 -105 -80 -21 -42 -21
-51 -21 -1037 0 -547 3 -1004 6 -1016 4 -13 10 -21 14 -18 4 3 7 -3 6 -13 0
-9 4 -16 10 -15 7 1 11 -5 10 -15 0 -10 6 -16 16 -16 10 1 16 -3 15 -10 -1 -6
6 -10 15 -10 10 1 16 -2 13 -6 -3 -4 5 -10 18 -14 36 -10 569 -7 563 3 -4 5 2
7 12 4 22 -5 85 44 75 59 -3 7 -1 8 5 4 13 -8 36 30 27 44 -3 6 -1 10 5 10 7
0 10 297 8 1014 l-3 1015 -22 28 c-11 15 -26 27 -32 25 -6 -1 -10 3 -9 10 2 7
-13 20 -32 30 -31 16 -66 18 -313 18 -181 0 -276 -3 -272 -10z"/>
</g>
</svg>
