<?xml version="1.0" encoding="UTF-8"?>
    <!--  Use CSS `color` on the parent element to change the color!  -->
    <svg xmlns="http://www.w3.org/2000/svg" viewBox="0 0 287.1 89">
      <defs>
        <style>
            .cls-1 {
                fill: #fff;
            }

            .cls-1, .cls-2, .cls-3, .cls-4, .cls-5 {
                stroke: #231f20;
                stroke-miterlimit: 10;
            }

            .cls-2 {
                fill: currentColor;
            }

            .cls-3 {
                opacity: 0.35;
                fill: #000;
            }

            .cls-4 {
                opacity: 0.25;
                fill: #000;
            }

            .cls-5 {
                opacity: 0.45;
                fill: #000;
            }
        </style>
      </defs>
      <g id="Layer_6" data-name="Layer 6">
        <path class="cls-2"
              d="M264.57,78.41H30.91c-7.93,0-14.37-6.43-14.37-14.37V21.99c0-7.93,6.43-14.37,14.37-14.37h233.66c7.93,0,14.37,6.43,14.37,14.37v42.06c0,7.93-6.43,14.37-14.37,14.37"/>
        <circle class="cls-1" cx="34.2" cy="41.97" r="11.89"/>
      </g>
      <g id="Layer_2" data-name="Layer 2">
        <rect class="cls-4" x="115.67" y="16.26" width="51.03" height="53.5"/>
      </g>
      <g id="Layer_3" data-name="Layer 3">
        <rect class="cls-3" x="166.7" y="16.26" width="51.36" height="53.5"/>
      </g>
      <g id="Layer_4" data-name="Layer 4">
        <path class="cls-5"
              d="M269.6,58.45c0,6.25-5.06,11.31-11.31,11.31h-40.24V16.26h40.24c6.25,0,11.31,5.06,11.31,11.31"/>
        <line class="cls-5" x1="269.6" y1="27.57" x2="269.6" y2="58.45"/>
      </g>
    </svg>
